<mxfile host="app.diagrams.net" modified="2024-04-24T13:43:44.989Z" agent="Mozilla/5.0 (Macintosh; Intel Mac OS X 10.15; rv:124.0) Gecko/20100101 Firefox/124.0" etag="91YkS4nXL-r2_2FoxfH9" version="23.0.2" type="google">
  <diagram id="C5RBs43oDa-KdzZeNtuy" name="Page-1">
    <mxGraphModel grid="1" page="1" gridSize="10" guides="1" tooltips="1" connect="1" arrows="1" fold="1" pageScale="1" pageWidth="827" pageHeight="1169" math="0" shadow="0">
      <root>
        <mxCell id="WIyWlLk6GJQsqaUBKTNV-0" />
        <mxCell id="WIyWlLk6GJQsqaUBKTNV-1" parent="WIyWlLk6GJQsqaUBKTNV-0" />
        <mxCell id="WIyWlLk6GJQsqaUBKTNV-2" value="" style="rounded=0;html=1;jettySize=auto;orthogonalLoop=1;fontSize=11;endArrow=block;endFill=0;endSize=8;strokeWidth=1;shadow=0;labelBackgroundColor=none;edgeStyle=orthogonalEdgeStyle;" edge="1" parent="WIyWlLk6GJQsqaUBKTNV-1" source="WIyWlLk6GJQsqaUBKTNV-3" target="QvX2pHdLnCPASOKoLLCH-4">
          <mxGeometry relative="1" as="geometry">
            <mxPoint x="360" y="260" as="targetPoint" />
            <Array as="points" />
          </mxGeometry>
        </mxCell>
        <mxCell id="WIyWlLk6GJQsqaUBKTNV-3" value="&lt;div&gt;PENDING&lt;/div&gt;" style="rounded=1;whiteSpace=wrap;html=1;fontSize=12;glass=0;strokeWidth=1;shadow=0;" vertex="1" parent="WIyWlLk6GJQsqaUBKTNV-1">
          <mxGeometry x="300" y="160" width="120" height="40" as="geometry" />
        </mxCell>
        <mxCell id="QvX2pHdLnCPASOKoLLCH-25" style="edgeStyle=orthogonalEdgeStyle;rounded=0;orthogonalLoop=1;jettySize=auto;html=1;exitX=0.5;exitY=1;exitDx=0;exitDy=0;" edge="1" parent="WIyWlLk6GJQsqaUBKTNV-1" source="PBtRmWp2hWV0U_koNuMH-1" target="PBtRmWp2hWV0U_koNuMH-2">
          <mxGeometry relative="1" as="geometry" />
        </mxCell>
        <mxCell id="PBtRmWp2hWV0U_koNuMH-1" value="ENABLED" style="rounded=1;whiteSpace=wrap;html=1;" vertex="1" parent="WIyWlLk6GJQsqaUBKTNV-1">
          <mxGeometry x="320" y="680" width="120" height="50" as="geometry" />
        </mxCell>
        <mxCell id="QvX2pHdLnCPASOKoLLCH-27" style="edgeStyle=orthogonalEdgeStyle;rounded=0;orthogonalLoop=1;jettySize=auto;html=1;exitX=0.5;exitY=1;exitDx=0;exitDy=0;" edge="1" parent="WIyWlLk6GJQsqaUBKTNV-1" source="PBtRmWp2hWV0U_koNuMH-2">
          <mxGeometry relative="1" as="geometry">
            <mxPoint x="360" y="240" as="targetPoint" />
            <Array as="points">
              <mxPoint x="380" y="880" />
              <mxPoint x="-80" y="880" />
              <mxPoint x="-80" y="240" />
            </Array>
          </mxGeometry>
        </mxCell>
        <mxCell id="PBtRmWp2hWV0U_koNuMH-2" value="&lt;div&gt;DISABLED&lt;/div&gt;" style="rounded=1;whiteSpace=wrap;html=1;" vertex="1" parent="WIyWlLk6GJQsqaUBKTNV-1">
          <mxGeometry x="320" y="810" width="120" height="50" as="geometry" />
        </mxCell>
        <mxCell id="QvX2pHdLnCPASOKoLLCH-6" style="edgeStyle=orthogonalEdgeStyle;rounded=0;orthogonalLoop=1;jettySize=auto;html=1;exitX=0;exitY=0.5;exitDx=0;exitDy=0;entryX=0.5;entryY=0;entryDx=0;entryDy=0;" edge="1" parent="WIyWlLk6GJQsqaUBKTNV-1" source="QvX2pHdLnCPASOKoLLCH-4" target="QvX2pHdLnCPASOKoLLCH-5">
          <mxGeometry relative="1" as="geometry" />
        </mxCell>
        <mxCell id="QvX2pHdLnCPASOKoLLCH-9" style="edgeStyle=orthogonalEdgeStyle;rounded=0;orthogonalLoop=1;jettySize=auto;html=1;exitX=1;exitY=0.5;exitDx=0;exitDy=0;entryX=0.5;entryY=0;entryDx=0;entryDy=0;" edge="1" parent="WIyWlLk6GJQsqaUBKTNV-1" source="QvX2pHdLnCPASOKoLLCH-4" target="QvX2pHdLnCPASOKoLLCH-8">
          <mxGeometry relative="1" as="geometry" />
        </mxCell>
        <mxCell id="QvX2pHdLnCPASOKoLLCH-4" value="Is the user performing&lt;br&gt;operation on &lt;br&gt;themselves ?" style="rhombus;whiteSpace=wrap;html=1;" vertex="1" parent="WIyWlLk6GJQsqaUBKTNV-1">
          <mxGeometry x="265" y="270" width="190" height="100" as="geometry" />
        </mxCell>
        <mxCell id="QvX2pHdLnCPASOKoLLCH-11" style="edgeStyle=orthogonalEdgeStyle;rounded=0;orthogonalLoop=1;jettySize=auto;html=1;exitX=1;exitY=0.5;exitDx=0;exitDy=0;" edge="1" parent="WIyWlLk6GJQsqaUBKTNV-1" source="QvX2pHdLnCPASOKoLLCH-5" target="PBtRmWp2hWV0U_koNuMH-1">
          <mxGeometry relative="1" as="geometry" />
        </mxCell>
        <mxCell id="QvX2pHdLnCPASOKoLLCH-14" style="edgeStyle=orthogonalEdgeStyle;rounded=0;orthogonalLoop=1;jettySize=auto;html=1;exitX=0;exitY=0.5;exitDx=0;exitDy=0;entryX=0.5;entryY=0;entryDx=0;entryDy=0;" edge="1" parent="WIyWlLk6GJQsqaUBKTNV-1" source="QvX2pHdLnCPASOKoLLCH-5" target="QvX2pHdLnCPASOKoLLCH-13">
          <mxGeometry relative="1" as="geometry" />
        </mxCell>
        <mxCell id="QvX2pHdLnCPASOKoLLCH-5" value="Are there privacy policies&lt;br&gt;on the role&#39;s profile ?" style="rhombus;whiteSpace=wrap;html=1;" vertex="1" parent="WIyWlLk6GJQsqaUBKTNV-1">
          <mxGeometry x="100" y="420" width="195" height="110" as="geometry" />
        </mxCell>
        <mxCell id="QvX2pHdLnCPASOKoLLCH-7" value="Yes" style="text;html=1;align=center;verticalAlign=middle;resizable=0;points=[];autosize=1;strokeColor=none;fillColor=none;" vertex="1" parent="WIyWlLk6GJQsqaUBKTNV-1">
          <mxGeometry x="150" y="338" width="40" height="30" as="geometry" />
        </mxCell>
        <mxCell id="QvX2pHdLnCPASOKoLLCH-21" style="edgeStyle=orthogonalEdgeStyle;rounded=0;orthogonalLoop=1;jettySize=auto;html=1;exitX=0;exitY=0.5;exitDx=0;exitDy=0;entryX=1;entryY=0.5;entryDx=0;entryDy=0;" edge="1" parent="WIyWlLk6GJQsqaUBKTNV-1" source="QvX2pHdLnCPASOKoLLCH-8" target="PBtRmWp2hWV0U_koNuMH-1">
          <mxGeometry relative="1" as="geometry" />
        </mxCell>
        <mxCell id="QvX2pHdLnCPASOKoLLCH-23" style="edgeStyle=orthogonalEdgeStyle;rounded=0;orthogonalLoop=1;jettySize=auto;html=1;exitX=1;exitY=0.5;exitDx=0;exitDy=0;entryX=1;entryY=0.5;entryDx=0;entryDy=0;" edge="1" parent="WIyWlLk6GJQsqaUBKTNV-1" source="QvX2pHdLnCPASOKoLLCH-8" target="WIyWlLk6GJQsqaUBKTNV-3">
          <mxGeometry relative="1" as="geometry" />
        </mxCell>
        <mxCell id="QvX2pHdLnCPASOKoLLCH-8" value="Are there privacy policies&lt;br&gt;on the role&#39;s profile ?" style="rhombus;whiteSpace=wrap;html=1;" vertex="1" parent="WIyWlLk6GJQsqaUBKTNV-1">
          <mxGeometry x="480" y="420" width="195" height="110" as="geometry" />
        </mxCell>
        <mxCell id="QvX2pHdLnCPASOKoLLCH-10" value="No" style="text;html=1;align=center;verticalAlign=middle;resizable=0;points=[];autosize=1;strokeColor=none;fillColor=none;" vertex="1" parent="WIyWlLk6GJQsqaUBKTNV-1">
          <mxGeometry x="587.5" y="338" width="40" height="30" as="geometry" />
        </mxCell>
        <mxCell id="QvX2pHdLnCPASOKoLLCH-12" value="No" style="text;html=1;align=center;verticalAlign=middle;resizable=0;points=[];autosize=1;strokeColor=none;fillColor=none;" vertex="1" parent="WIyWlLk6GJQsqaUBKTNV-1">
          <mxGeometry x="310" y="480" width="40" height="30" as="geometry" />
        </mxCell>
        <mxCell id="QvX2pHdLnCPASOKoLLCH-16" style="edgeStyle=orthogonalEdgeStyle;rounded=0;orthogonalLoop=1;jettySize=auto;html=1;exitX=1;exitY=0.5;exitDx=0;exitDy=0;entryX=0;entryY=0.5;entryDx=0;entryDy=0;" edge="1" parent="WIyWlLk6GJQsqaUBKTNV-1" source="QvX2pHdLnCPASOKoLLCH-13" target="PBtRmWp2hWV0U_koNuMH-1">
          <mxGeometry relative="1" as="geometry">
            <mxPoint x="220" y="710" as="targetPoint" />
          </mxGeometry>
        </mxCell>
        <mxCell id="QvX2pHdLnCPASOKoLLCH-18" style="edgeStyle=orthogonalEdgeStyle;rounded=0;orthogonalLoop=1;jettySize=auto;html=1;exitX=0;exitY=0.5;exitDx=0;exitDy=0;entryX=0;entryY=0.5;entryDx=0;entryDy=0;" edge="1" parent="WIyWlLk6GJQsqaUBKTNV-1" source="QvX2pHdLnCPASOKoLLCH-13" target="PBtRmWp2hWV0U_koNuMH-2">
          <mxGeometry relative="1" as="geometry" />
        </mxCell>
        <mxCell id="QvX2pHdLnCPASOKoLLCH-13" value="Does the user accept&lt;br&gt;the privacy policies ?" style="rhombus;whiteSpace=wrap;html=1;" vertex="1" parent="WIyWlLk6GJQsqaUBKTNV-1">
          <mxGeometry x="-20" y="560" width="195" height="110" as="geometry" />
        </mxCell>
        <mxCell id="QvX2pHdLnCPASOKoLLCH-15" value="Yes" style="text;html=1;align=center;verticalAlign=middle;resizable=0;points=[];autosize=1;strokeColor=none;fillColor=none;" vertex="1" parent="WIyWlLk6GJQsqaUBKTNV-1">
          <mxGeometry x="20" y="480" width="40" height="30" as="geometry" />
        </mxCell>
        <mxCell id="QvX2pHdLnCPASOKoLLCH-17" value="Yes" style="text;html=1;align=center;verticalAlign=middle;resizable=0;points=[];autosize=1;strokeColor=none;fillColor=none;" vertex="1" parent="WIyWlLk6GJQsqaUBKTNV-1">
          <mxGeometry x="190" y="618" width="40" height="30" as="geometry" />
        </mxCell>
        <mxCell id="QvX2pHdLnCPASOKoLLCH-19" value="No" style="text;html=1;align=center;verticalAlign=middle;resizable=0;points=[];autosize=1;strokeColor=none;fillColor=none;" vertex="1" parent="WIyWlLk6GJQsqaUBKTNV-1">
          <mxGeometry x="-70" y="588" width="40" height="30" as="geometry" />
        </mxCell>
        <mxCell id="QvX2pHdLnCPASOKoLLCH-22" value="No" style="text;html=1;align=center;verticalAlign=middle;resizable=0;points=[];autosize=1;strokeColor=none;fillColor=none;" vertex="1" parent="WIyWlLk6GJQsqaUBKTNV-1">
          <mxGeometry x="430" y="448" width="40" height="30" as="geometry" />
        </mxCell>
        <mxCell id="QvX2pHdLnCPASOKoLLCH-24" value="Yes" style="text;html=1;align=center;verticalAlign=middle;resizable=0;points=[];autosize=1;strokeColor=none;fillColor=none;" vertex="1" parent="WIyWlLk6GJQsqaUBKTNV-1">
          <mxGeometry x="690" y="448" width="40" height="30" as="geometry" />
        </mxCell>
        <mxCell id="QvX2pHdLnCPASOKoLLCH-26" value="Disable" style="text;html=1;align=center;verticalAlign=middle;resizable=0;points=[];autosize=1;strokeColor=none;fillColor=none;" vertex="1" parent="WIyWlLk6GJQsqaUBKTNV-1">
          <mxGeometry x="384" y="760" width="60" height="30" as="geometry" />
        </mxCell>
        <mxCell id="QvX2pHdLnCPASOKoLLCH-28" value="Enable" style="text;html=1;align=center;verticalAlign=middle;resizable=0;points=[];autosize=1;strokeColor=none;fillColor=none;" vertex="1" parent="WIyWlLk6GJQsqaUBKTNV-1">
          <mxGeometry x="320" y="878" width="60" height="30" as="geometry" />
        </mxCell>
      </root>
    </mxGraphModel>
  </diagram>
</mxfile>
